# xmcd
#
# Track frame offsets: 
#        150
#        4685
#        9173
#        29058
#        48673
#        74050
#        90632
#        110275
#        127428
#        150065
#        167073
#        185335
#        203783
#        220998
#        238010
#        257405
#        277380
#        295140
#
# Disc length: 4237 seconds
#
# Revision: 2
# Processed by: cddbd v1.5.2PL0 Copyright (c) Steve Scherf et al.
# Submitted via: ExactAudioCopyFreeDBPlugin 1.0
#
DISCID=07108b12
DTITLE=Tank - One Man
DYEAR=2002
DGENRE=R&B
TTITLE0=Interlude (feat. Adimu Colon)
TTITLE1=One Man (Intro)
TTITLE2=One Man
TTITLE3=Supa Sexy
TTITLE4=My Place
TTITLE5=Unpredictable
TTITLE6=Cake and Ice Cream (feat. Heat)
TTITLE7=Close (feat. Mowett)
TTITLE8=I'm The Reason
TTITLE9=Make Me Wanna Sing (feat. Sparkle)
TTITLE10=Let Me Live (feat. Mannie Fresh and Jazze Pha)
TTITLE11=Party Like A Thug (feat. Birdman)
TTITLE12=I Wanna Be That (feat. Jazze Pha)
TTITLE13=No, Why?
TTITLE14=Club
TTITLE15=So Many Times
TTITLE16=Better Man
TTITLE17=I Still Believe
EXTD=
EXTT0=
EXTT1=
EXTT2=
EXTT3=
EXTT4=
EXTT5=
EXTT6=
EXTT7=
EXTT8=
EXTT9=
EXTT10=
EXTT11=
EXTT12=
EXTT13=
EXTT14=
EXTT15=
EXTT16=
EXTT17=
PLAYORDER=
